<svg
            width="49"
            height="30"
            viewBox="0 0 49 30"
            fill="none"
            xmlns="http://www.w3.org/2000/svg"
          >
            <path
              d="M24.2303 30C24.0643 30 23.9092 29.9557 23.7652 29.8782L22.2924 29.0034C22.0709 28.8815 22.1817 28.8373 22.2482 28.8151C22.5471 28.7155 22.6025 28.6933 22.9126 28.5162C22.9458 28.494 22.9902 28.5051 23.0233 28.5272L24.1529 29.2027C24.1972 29.2249 24.2526 29.2249 24.2857 29.2027L28.7044 26.6446C28.7486 26.6224 28.7709 26.5781 28.7709 26.5228V21.4176C28.7709 21.3621 28.7486 21.318 28.7044 21.2957L24.2857 18.7487C24.2414 18.7265 24.1861 18.7265 24.1529 18.7487L19.7343 21.2957C19.69 21.3179 19.6678 21.3733 19.6678 21.4175V26.5227C19.6678 26.5671 19.69 26.6223 19.7343 26.6446L20.9414 27.3422C21.5948 27.6744 22.0045 27.2868 22.0045 26.8993V21.8605C22.0045 21.7941 22.0599 21.7276 22.1374 21.7276H22.7021C22.7686 21.7276 22.835 21.783 22.835 21.8605V26.8993C22.835 27.7741 22.3588 28.2835 21.5283 28.2835C21.2736 28.2835 21.0743 28.2835 20.5094 28.0066L19.3467 27.3422C19.0588 27.1762 18.8816 26.866 18.8816 26.5338V21.4286C18.8816 21.0964 19.0588 20.7863 19.3467 20.6202L23.7652 18.0621C24.0421 17.907 24.4187 17.907 24.6955 18.0621L29.1141 20.6202C29.402 20.7863 29.5793 21.0964 29.5793 21.4286V26.5338C29.5793 26.866 29.402 27.1762 29.1141 27.3422L24.6955 29.9004C24.5515 29.9669 24.3855 30 24.2304 30H24.2303ZM25.5925 26.4895C23.6546 26.4895 23.2559 25.6036 23.2559 24.8506C23.2559 24.7841 23.3112 24.7177 23.3888 24.7177H23.9646C24.031 24.7177 24.0864 24.7619 24.0864 24.8284C24.175 25.4153 24.4297 25.7033 25.6036 25.7033C26.5338 25.7033 26.9326 25.4928 26.9326 24.9945C26.9326 24.7066 26.8217 24.4962 25.371 24.3522C24.1639 24.2303 23.4109 23.9646 23.4109 23.0012C23.4109 22.1041 24.164 21.5726 25.4264 21.5726C26.8439 21.5726 27.5416 22.0599 27.6302 23.1229C27.6302 23.1562 27.6191 23.1894 27.597 23.2226C27.5748 23.2448 27.5416 23.2669 27.5084 23.2669H26.9325C26.8771 23.2669 26.8217 23.2226 26.8107 23.1672C26.6778 22.5582 26.3345 22.3588 25.4264 22.3588C24.4076 22.3588 24.2857 22.7133 24.2857 22.979C24.2857 23.3001 24.4297 23.3998 25.8029 23.577C27.165 23.7542 27.8074 24.0089 27.8074 24.9612C27.7963 25.9358 26.999 26.4895 25.5925 26.4895Z"
              fill="#539E43"
            />
            <path
              d="M10.5205 10.0334C10.5205 9.83406 10.4097 9.64568 10.2326 9.54603L5.53712 6.84397C5.45951 6.79961 5.37097 6.77747 5.28244 6.76636H5.23807C5.14954 6.76636 5.0609 6.79961 4.98339 6.84397L0.287932 9.54603C0.11067 9.64568 0 9.83396 0 10.0334L0.0111149 17.298C0.0111149 17.3976 0.0664976 17.4973 0.155033 17.5416C0.243665 17.597 0.354334 17.597 0.431947 17.5416L3.22264 15.9469C3.39981 15.8473 3.51057 15.659 3.51057 15.4597V12.0599C3.51057 11.8606 3.62124 11.6723 3.79851 11.5727L4.98339 10.886C5.07202 10.8307 5.17167 10.8084 5.27132 10.8084C5.37097 10.8084 5.47062 10.8307 5.54823 10.886L6.73312 11.5727C6.91038 11.6723 7.02105 11.8605 7.02105 12.0599V15.4597C7.02105 15.659 7.13181 15.8473 7.30898 15.9469L10.0997 17.5416C10.1883 17.597 10.299 17.597 10.3876 17.5416C10.4762 17.4973 10.5316 17.3976 10.5316 17.298L10.5205 10.0334Z"
              fill="#333333"
            />
            <path
              d="M33.0897 0.0332727C33.0012 -0.0110909 32.8904 -0.0110909 32.8128 0.0332727C32.7243 0.0886554 32.6689 0.177191 32.6689 0.276842V7.47515C32.6689 7.54156 32.6357 7.60796 32.5692 7.65232C32.5028 7.68547 32.4363 7.68547 32.3699 7.65232L31.1961 6.97681C31.11 6.9278 31.0127 6.90204 30.9136 6.90204C30.8146 6.90204 30.7173 6.9278 30.6312 6.97681L25.9358 9.68998C25.7586 9.78963 25.6478 9.97791 25.6478 10.1772V15.5925C25.6478 15.7918 25.7586 15.9801 25.9358 16.0798L30.6312 18.793C30.7173 18.842 30.8146 18.8677 30.9136 18.8677C31.0127 18.8677 31.11 18.842 31.1961 18.793L35.8915 16.0798C36.0687 15.9801 36.1794 15.7918 36.1794 15.5925V2.09307C36.1794 1.88265 36.0687 1.69447 35.8915 1.59472L33.0898 0.0332727H33.0897ZM32.6579 13.8096C32.6579 13.865 32.6357 13.9092 32.5914 13.9314L30.9856 14.8616C30.9632 14.8725 30.9386 14.8782 30.9136 14.8782C30.8887 14.8782 30.8641 14.8725 30.8416 14.8616L29.2359 13.9314C29.1916 13.9092 29.1694 13.8538 29.1694 13.8096V11.9491C29.1694 11.8937 29.1916 11.8494 29.2359 11.8273L30.8416 10.897C30.8641 10.8861 30.8887 10.8804 30.9136 10.8804C30.9386 10.8804 30.9632 10.8861 30.9856 10.897L32.5914 11.8273C32.6357 11.8493 32.6579 11.9048 32.6579 11.9491V13.8096Z"
              fill="#333333"
            />
            <path
              d="M48.7155 11.9048C48.8927 11.8052 48.9924 11.6169 48.9924 11.4175V10.0997C48.9924 9.90043 48.8816 9.71215 48.7155 9.6125L44.0533 6.91043C43.9672 6.86145 43.8699 6.83569 43.7709 6.83569C43.6719 6.83569 43.5746 6.86145 43.4885 6.91043L38.7931 9.62351C38.6158 9.72316 38.5051 9.91145 38.5051 10.1108V15.5261C38.5051 15.7254 38.6158 15.9137 38.7931 16.0133L43.4553 18.6711C43.6325 18.7708 43.8428 18.7708 44.009 18.6711L46.8328 17.0987C46.9215 17.0544 46.9769 16.9547 46.9769 16.8551C46.9769 16.7554 46.9215 16.6558 46.8328 16.6114L42.1153 13.8982C42.0267 13.8429 41.9713 13.7543 41.9713 13.6547V11.9603C41.9713 11.8607 42.0267 11.761 42.1153 11.7167L43.5882 10.875C43.6313 10.8479 43.6812 10.8335 43.7321 10.8335C43.7831 10.8335 43.833 10.8479 43.8761 10.875L45.3489 11.7167C45.4375 11.772 45.4929 11.8606 45.4929 11.9603V13.2892C45.4929 13.3889 45.5483 13.4885 45.6368 13.5328C45.7255 13.5882 45.8361 13.5882 45.9248 13.5328L48.7155 11.9048V11.9048Z"
              fill="#333333"
            />
            <path
              d="M43.6989 11.6501C43.7153 11.6393 43.7346 11.6335 43.7542 11.6335C43.7739 11.6335 43.7931 11.6393 43.8096 11.6501L44.7066 12.1706C44.7399 12.1926 44.762 12.2259 44.762 12.2703V13.3112C44.762 13.3555 44.7399 13.3887 44.7066 13.4109L43.8096 13.9314C43.7931 13.9422 43.7739 13.9479 43.7542 13.9479C43.7346 13.9479 43.7153 13.9422 43.6989 13.9314L42.8018 13.4109C42.7686 13.3887 42.7465 13.3555 42.7465 13.3112V12.2703C42.7465 12.2259 42.7686 12.1926 42.8018 12.1706L43.6989 11.6501V11.6501Z"
              fill="#539E43"
            />
            <mask
              id="mask0_34_429"
              style="mask-type: alpha"
              maskUnits="userSpaceOnUse"
              x="12"
              y="6"
              width="12"
              height="13"
            >
              <path
                d="M18.372 6.93253C18.286 6.88355 18.1887 6.85779 18.0897 6.85779C17.9906 6.85779 17.8933 6.88355 17.8073 6.93253L13.1451 9.62338C12.9678 9.72303 12.8682 9.91131 12.8682 10.1106V15.5038C12.8682 15.7031 12.9789 15.8914 13.1451 15.991L17.8073 18.6821C17.8933 18.7311 17.9906 18.7568 18.0897 18.7568C18.1887 18.7568 18.286 18.7311 18.372 18.6821L23.0343 15.991C23.2115 15.8914 23.3112 15.7031 23.3112 15.5038V10.1107C23.3112 9.91141 23.2004 9.72313 23.0343 9.62348L18.372 6.93253Z"
                fill="white"
              />
            </mask>
            <g mask="url(#mask0_34_429)">
              <path
                d="M18.372 6.93253C18.286 6.88355 18.1887 6.85779 18.0897 6.85779C17.9906 6.85779 17.8933 6.88355 17.8073 6.93253L13.1451 9.62338C12.9678 9.72303 12.8682 9.91131 12.8682 10.1106V15.5038C12.8682 15.7031 12.9789 15.8914 13.1451 15.991L17.8073 18.6821C17.8933 18.7311 17.9906 18.7568 18.0897 18.7568C18.1887 18.7568 18.286 18.7311 18.372 18.6821L23.0343 15.991C23.2115 15.8914 23.3112 15.7031 23.3112 15.5038V10.1107C23.3112 9.91141 23.2004 9.72313 23.0343 9.62348L18.372 6.93253Z"
                fill="url(#paint0_linear_34_429)"
              />
              <path
                d="M23.0454 9.62353L18.3611 6.93258C18.3151 6.90934 18.2668 6.89078 18.2171 6.8772L12.9679 15.8695C13.0114 15.9226 13.0639 15.9676 13.123 16.0024L17.8074 18.6934C17.9403 18.771 18.0953 18.7931 18.2392 18.7487L23.1673 9.73439C23.1341 9.69012 23.0897 9.65678 23.0454 9.62362V9.62353Z"
                fill="url(#paint1_linear_34_429)"
              />
              <path
                fill-rule="evenodd"
                clip-rule="evenodd"
                d="M23.0565 15.9911C23.1894 15.9136 23.2891 15.7807 23.3334 15.6368L18.1948 6.86604C18.0619 6.8439 17.9179 6.85492 17.7962 6.93244L13.145 9.61246L18.1616 18.7597C18.2345 18.7478 18.3054 18.7254 18.372 18.6933L23.0564 15.9912L23.0565 15.9911Z"
                fill="url(#paint2_linear_34_429)"
              />
              <path
                fill-rule="evenodd"
                clip-rule="evenodd"
                d="M23.0566 15.9912L18.3833 18.6822C18.3173 18.7159 18.2462 18.7383 18.1729 18.7486L18.2615 18.9148L23.4442 15.9138V15.8473L23.3113 15.6257C23.2891 15.7808 23.1895 15.9137 23.0566 15.9912V15.9912Z"
                fill="url(#paint3_linear_34_429)"
              />
              <path
                fill-rule="evenodd"
                clip-rule="evenodd"
                d="M23.0566 15.9912L18.3833 18.6822C18.3173 18.7159 18.2462 18.7383 18.1729 18.7486L18.2615 18.9148L23.4442 15.9138V15.8473L23.3113 15.6257C23.2891 15.7808 23.1895 15.9137 23.0566 15.9912V15.9912Z"
                fill="url(#paint4_linear_34_429)"
              />
            </g>
            <defs>
              <linearGradient
                id="paint0_linear_34_429"
                x1="19.9891"
                y1="8.93857"
                x2="14.8789"
                y2="16.9683"
                gradientUnits="userSpaceOnUse"
              >
                <stop stop-color="#41873F" />
                <stop offset="0.3288" stop-color="#418B3D" />
                <stop offset="0.6352" stop-color="#419637" />
                <stop offset="0.9319" stop-color="#3FA92D" />
                <stop offset="1" stop-color="#3FAE2A" />
              </linearGradient>
              <linearGradient
                id="paint1_linear_34_429"
                x1="17.3819"
                y1="13.4391"
                x2="30.1802"
                y2="6.48571"
                gradientUnits="userSpaceOnUse"
              >
                <stop offset="0.1376" stop-color="#41873F" />
                <stop offset="0.4032" stop-color="#54A044" />
                <stop offset="0.7136" stop-color="#66B848" />
                <stop offset="0.9081" stop-color="#6CC04A" />
              </linearGradient>
              <linearGradient
                id="paint2_linear_34_429"
                x1="12.6979"
                y1="12.8075"
                x2="23.4861"
                y2="12.8075"
                gradientUnits="userSpaceOnUse"
              >
                <stop offset="0.09192" stop-color="#6CC04A" />
                <stop offset="0.2864" stop-color="#66B848" />
                <stop offset="0.5968" stop-color="#54A044" />
                <stop offset="0.8624" stop-color="#41873F" />
              </linearGradient>
              <linearGradient
                id="paint3_linear_34_429"
                x1="12.698"
                y1="17.2793"
                x2="23.4862"
                y2="17.2793"
                gradientUnits="userSpaceOnUse"
              >
                <stop offset="0.09192" stop-color="#6CC04A" />
                <stop offset="0.2864" stop-color="#66B848" />
                <stop offset="0.5968" stop-color="#54A044" />
                <stop offset="0.8624" stop-color="#41873F" />
              </linearGradient>
              <linearGradient
                id="paint4_linear_34_429"
                x1="25.0579"
                y1="8.68359"
                x2="22.3248"
                y2="23.0048"
                gradientUnits="userSpaceOnUse"
              >
                <stop stop-color="#41873F" />
                <stop offset="0.3288" stop-color="#418B3D" />
                <stop offset="0.6352" stop-color="#419637" />
                <stop offset="0.9319" stop-color="#3FA92D" />
                <stop offset="1" stop-color="#3FAE2A" />
              </linearGradient>
            </defs>
          </svg>